<svg id="Layer_1" data-name="Layer 1" xmlns="http://www.w3.org/2000/svg" viewBox="0 0 740.15 229.52"><defs><style>.cls-1{fill:#2e2c74;}.cls-2{fill:#2ab34b;}</style></defs><path class="cls-1" d="M146,240.84a13.1,13.1,0,0,1-3.25,3.72,7.33,7.33,0,0,1-4.39,1.24,10.75,10.75,0,0,1-5.12-1.5q-2.73-1.5-6.2-3.36a51.68,51.68,0,0,0-7.9-3.36,31.6,31.6,0,0,0-10.13-1.5q-9.81,0-14.62,4.19t-4.8,11.31a10.44,10.44,0,0,0,2.89,7.55,25,25,0,0,0,7.59,5.16,80.51,80.51,0,0,0,10.75,4q6,1.82,12.35,4a110,110,0,0,1,12.35,5.22,40.9,40.9,0,0,1,10.74,7.65,35.64,35.64,0,0,1,7.6,11.31,40.21,40.21,0,0,1,2.89,16.07,52.37,52.37,0,0,1-3.62,19.53,45.7,45.7,0,0,1-10.48,15.86,48.73,48.73,0,0,1-17,10.64,63.29,63.29,0,0,1-22.89,3.88A73.76,73.76,0,0,1,88.5,361a83.92,83.92,0,0,1-14.1-4.08,82.3,82.3,0,0,1-12.82-6.25,54.54,54.54,0,0,1-10.43-8.06l10.33-16.33a8.43,8.43,0,0,1,3.2-3,9.17,9.17,0,0,1,4.45-1.13,11.76,11.76,0,0,1,6.25,2c2.1,1.31,4.47,2.76,7.13,4.34a57.66,57.66,0,0,0,9.14,4.34,34.31,34.31,0,0,0,12.2,2q9.5,0,14.77-4.18t5.27-13.28a12.57,12.57,0,0,0-2.89-8.58,22.29,22.29,0,0,0-7.6-5.47,70.41,70.41,0,0,0-10.69-3.83q-6-1.65-12.3-3.66a91,91,0,0,1-12.29-5,38.9,38.9,0,0,1-10.7-7.75,36.25,36.25,0,0,1-7.59-12q-2.89-7.19-2.9-17.72a42.08,42.08,0,0,1,3.41-16.53,42.81,42.81,0,0,1,10-14.37,49.1,49.1,0,0,1,16.22-10.07,59.8,59.8,0,0,1,22-3.77,82.86,82.86,0,0,1,13.48,1.08,70.5,70.5,0,0,1,12.45,3.21,67.54,67.54,0,0,1,11,5.06,50.29,50.29,0,0,1,9.14,6.66Z" transform="translate(-51.15 -165.27)"/><path class="cls-1" d="M174.11,360.8V206.12h32v56.93a52.46,52.46,0,0,1,12.56-8,39.18,39.18,0,0,1,16.17-3,37.55,37.55,0,0,1,15.55,3,32.37,32.37,0,0,1,11.42,8.48,36.44,36.44,0,0,1,7,12.91,53.43,53.43,0,0,1,2.38,16.28V360.8h-32V292.71q0-7.86-3.62-12.25T225,276.07a22.22,22.22,0,0,0-9.92,2.28,38.47,38.47,0,0,0-8.89,6.09V360.8Z" transform="translate(-51.15 -165.27)"/><path class="cls-2" d="M465.3,394.8V253.65h19.84a8.91,8.91,0,0,1,5,1.34,7.2,7.2,0,0,1,2.84,4l2.38,7.86a52.62,52.62,0,0,1,6.66-6.2,43.93,43.93,0,0,1,7.65-4.81,42.5,42.5,0,0,1,8.78-3.15,43.56,43.56,0,0,1,10.28-1.14,33,33,0,0,1,15.5,3.72,35.76,35.76,0,0,1,12.3,10.75,54.24,54.24,0,0,1,8.11,17.2,83.34,83.34,0,0,1,2.94,23.1,71.45,71.45,0,0,1-3.35,22.32,56.11,56.11,0,0,1-9.41,17.77,43.27,43.27,0,0,1-14.46,11.78,41,41,0,0,1-18.65,4.24,36.63,36.63,0,0,1-14.06-2.38,37.94,37.94,0,0,1-10.33-6.41V394.8Zm52.28-118.73a28.06,28.06,0,0,0-6.35.67,23.23,23.23,0,0,0-5.27,1.92,19.64,19.64,0,0,0-4.5,3.15,45.31,45.31,0,0,0-4.13,4.39v45.46a20.28,20.28,0,0,0,7.85,5.64,25.13,25.13,0,0,0,8.89,1.6,18.88,18.88,0,0,0,8.16-1.76,16.68,16.68,0,0,0,6.46-5.63A30,30,0,0,0,533,321.43a63.23,63.23,0,0,0,1.55-15.08,69.18,69.18,0,0,0-1.24-14.26,29.39,29.39,0,0,0-3.46-9.35,13.57,13.57,0,0,0-5.32-5.12A15.34,15.34,0,0,0,517.58,276.07Z" transform="translate(-51.15 -165.27)"/><path class="cls-2" d="M631.62,252a55.27,55.27,0,0,1,19.48,3.3,42.48,42.48,0,0,1,15.19,9.61,43.82,43.82,0,0,1,9.92,15.45,56.62,56.62,0,0,1,3.57,20.72,46.5,46.5,0,0,1-.31,5.89,9.36,9.36,0,0,1-1.14,3.61,4.28,4.28,0,0,1-2.22,1.86,10.28,10.28,0,0,1-3.57.52H610.75q1.54,13.44,8.16,19.48t17.05,6a30.37,30.37,0,0,0,9.61-1.34,46.88,46.88,0,0,0,7.18-3c2.11-1.1,4-2.1,5.79-3a12,12,0,0,1,5.53-1.35,6.63,6.63,0,0,1,5.79,2.79l9.3,11.47a47.59,47.59,0,0,1-10.7,9.25,55.18,55.18,0,0,1-11.78,5.58,63.6,63.6,0,0,1-12.09,2.79,90.14,90.14,0,0,1-11.52.78,60.28,60.28,0,0,1-21.13-3.67,48.69,48.69,0,0,1-17.26-10.9,51.4,51.4,0,0,1-11.67-18q-4.29-10.76-4.29-25a56.55,56.55,0,0,1,3.67-20.36,49.47,49.47,0,0,1,27.17-28.31A55,55,0,0,1,631.62,252Zm.62,22.11q-9.19,0-14.36,5.22t-6.82,15h40a28.45,28.45,0,0,0-1-7.44,18.22,18.22,0,0,0-3.21-6.46,16.29,16.29,0,0,0-5.83-4.59A19.88,19.88,0,0,0,632.24,274.11Z" transform="translate(-51.15 -165.27)"/><path class="cls-2" d="M694.17,360.8V253.65H714a8.91,8.91,0,0,1,5,1.34,7.2,7.2,0,0,1,2.84,4l1.86,6.2a76.59,76.59,0,0,1,6.41-5.37,37.84,37.84,0,0,1,7.07-4.19,42.3,42.3,0,0,1,8.17-2.68,43.4,43.4,0,0,1,9.56-1,37.59,37.59,0,0,1,15.55,3,32.46,32.46,0,0,1,11.42,8.48,36.6,36.6,0,0,1,7,12.91,53.43,53.43,0,0,1,2.38,16.28V360.8h-32V292.71q0-7.86-3.62-12.25T745,276.07a22.22,22.22,0,0,0-9.92,2.28,38.26,38.26,0,0,0-8.89,6.09V360.8Z" transform="translate(-51.15 -165.27)"/><rect class="cls-1" x="305.8" width="22.15" height="110.62" rx="10.4"/><path class="cls-2" d="M384.35,203.09v26.5a56,56,0,0,1,7.13,2.66,58.34,58.34,0,0,1,31.15,72.43,58.34,58.34,0,1,1-97.37-59.4A59.2,59.2,0,0,1,344.21,232a56.85,56.85,0,0,1,6.52-2.4v-26.5a84.06,84.06,0,1,0,33.62,0Z" transform="translate(-51.15 -165.27)"/><path class="cls-2" d="M314.06,291.88a52.21,52.21,0,0,0,35.08,44.06,50.14,50.14,0,0,0,9.76,2.35,2.58,2.58,0,0,0,3.07-1.75c.32-1.16-.4-2.89-1.74-3.07a49.07,49.07,0,0,1-19.84-7.27,47,47,0,0,1-19.09-24.51,52.11,52.11,0,0,1-1.65-6.15c-.15-.76-.29-1.53-.41-2.29,0-.15,0-.31-.07-.46-.1-.66.05.42,0-.07,0-.28-.07-.56-.1-.84a2.57,2.57,0,0,0-2.5-2.5,2.52,2.52,0,0,0-2.5,2.5Z" transform="translate(-51.15 -165.27)"/><path class="cls-2" d="M415.06,291.88l-.09.8c-.05.44,0-.06,0-.13l-.09.59c-.11.74-.23,1.48-.38,2.22a50.33,50.33,0,0,1-1.31,5.25,47.27,47.27,0,0,1-28.82,30.51,51.12,51.12,0,0,1-8.49,2.35,2.52,2.52,0,0,0-1.75,3.07,2.56,2.56,0,0,0,3.08,1.75,53.1,53.1,0,0,0,40.24-34.64,53.82,53.82,0,0,0,2.59-11.77,2.51,2.51,0,0,0-2.5-2.5,2.56,2.56,0,0,0-2.5,2.5Z" transform="translate(-51.15 -165.27)"/><path class="cls-2" d="M319,277.54A53.3,53.3,0,0,1,342.31,244a55,55,0,0,1,7.51-4,2.51,2.51,0,0,0,.9-3.42,2.57,2.57,0,0,0-3.42-.9A58.22,58.22,0,0,0,317,267a56.36,56.36,0,0,0-2.87,9.23c-.69,3.14,4.13,4.48,4.82,1.33Z" transform="translate(-51.15 -165.27)"/><path class="cls-2" d="M421,277.21a58.66,58.66,0,0,0-33.15-41.49,2.57,2.57,0,0,0-3.42.9,2.53,2.53,0,0,0,.9,3.42A54.31,54.31,0,0,1,413,268.16a56.29,56.29,0,0,1,3.17,10.38,2.5,2.5,0,1,0,4.82-1.33Z" transform="translate(-51.15 -165.27)"/></svg>